<svg width="17" height="17" viewBox="0 0 17 17" fill="none" xmlns="http://www.w3.org/2000/svg">
<path d="M3.54167 14.875C3.15208 14.875 2.81858 14.7363 2.54115 14.4588C2.26372 14.1814 2.125 13.8479 2.125 13.4583V3.54165C2.125 3.15207 2.26372 2.81856 2.54115 2.54113C2.81858 2.2637 3.15208 2.12499 3.54167 2.12499H9.86354L8.44688 3.54165H3.54167V13.4583H13.4583V8.5354L14.875 7.11874V13.4583C14.875 13.8479 14.7363 14.1814 14.4589 14.4588C14.1814 14.7363 13.8479 14.875 13.4583 14.875H3.54167ZM6.375 10.625V7.61457L12.874 1.11561C13.0156 0.973946 13.175 0.867696 13.3521 0.796863C13.5292 0.726029 13.7063 0.690613 13.8833 0.690613C14.0722 0.690613 14.2523 0.726029 14.4234 0.796863C14.5946 0.867696 14.751 0.973946 14.8927 1.11561L15.8844 2.12499C16.0142 2.26665 16.1146 2.42308 16.1854 2.59426C16.2562 2.76544 16.2917 2.93957 16.2917 3.11665C16.2917 3.29374 16.2592 3.46787 16.1943 3.63905C16.1293 3.81023 16.026 3.96665 15.8844 4.10832L9.38542 10.625H6.375ZM7.79167 9.20832H8.78333L12.8917 5.09999L12.3958 4.60415L11.8823 4.10832L7.79167 8.19895V9.20832Z" fill="#CDDAFF"/>
</svg>
