<svg width="18" height="19" viewBox="0 0 18 19" fill="none" xmlns="http://www.w3.org/2000/svg">
<path d="M3.75 16.625C3.3375 16.625 2.98438 16.47 2.69063 16.1599C2.39687 15.8498 2.25 15.4771 2.25 15.0417V3.95832C2.25 3.52291 2.39687 3.15016 2.69063 2.84009C2.98438 2.53002 3.3375 2.37499 3.75 2.37499H6.9C7.0625 1.89999 7.33438 1.51735 7.71563 1.22707C8.09688 0.936795 8.525 0.791656 9 0.791656C9.475 0.791656 9.90313 0.936795 10.2844 1.22707C10.6656 1.51735 10.9375 1.89999 11.1 2.37499H14.25C14.6625 2.37499 15.0156 2.53002 15.3094 2.84009C15.6031 3.15016 15.75 3.52291 15.75 3.95832V15.0417C15.75 15.4771 15.6031 15.8498 15.3094 16.1599C15.0156 16.47 14.6625 16.625 14.25 16.625H3.75ZM3.75 15.0417H14.25V3.95832H3.75V15.0417ZM5.25 13.4583H10.5V11.875H5.25V13.4583ZM5.25 10.2917H12.75V8.70832H5.25V10.2917ZM5.25 7.12499H12.75V5.54166H5.25V7.12499ZM9 3.36457C9.1625 3.36457 9.29688 3.3085 9.40313 3.19634C9.50938 3.08419 9.5625 2.94235 9.5625 2.77082C9.5625 2.5993 9.50938 2.45746 9.40313 2.3453C9.29688 2.23315 9.1625 2.17707 9 2.17707C8.8375 2.17707 8.70313 2.23315 8.59688 2.3453C8.49063 2.45746 8.4375 2.5993 8.4375 2.77082C8.4375 2.94235 8.49063 3.08419 8.59688 3.19634C8.70313 3.3085 8.8375 3.36457 9 3.36457Z" fill="#B5B5B5"/>
</svg>
